<svg width="186" height="149" viewBox="0 0 186 149" fill="none" xmlns="http://www.w3.org/2000/svg">
<path d="M27.481 111.396C27.1732 113.274 26.9208 115.02 26.5977 116.751C26.1435 119.184 24.498 120.532 22.4488 120.214C20.3996 119.896 19.1428 118.124 19.5062 115.701C20.3491 110.099 21.2223 104.501 22.2368 98.929C22.792 95.8905 25.7195 94.5984 28.4703 96.0571C33.1947 98.5606 37.8938 101.125 42.5777 103.709C44.6371 104.845 45.3185 106.848 44.3897 108.63C43.4509 110.437 41.4522 111.038 39.3525 110.043C37.6616 109.241 36.0363 108.312 34.0931 107.287C34.7291 109.392 35.8698 110.886 36.9247 112.37C50.598 131.646 69.2986 141.756 92.9102 141.943C120.237 142.16 145.105 125.034 155.255 99.6861C157.204 94.8154 158.46 89.7579 159.369 84.5995C159.616 83.1863 159.349 82.6714 157.729 82.6664C107.063 82.5553 56.3974 82.515 5.7319 82.8329C4.78804 82.838 3.83409 82.843 2.91042 82.6866C1.1186 82.3888 0.109127 81.1875 0.00817912 79.4411C-0.0978158 77.6846 0.830901 76.4127 2.53187 75.8878C3.29907 75.6505 4.14198 75.5849 4.94956 75.5748C8.79566 75.5344 12.6367 75.489 16.4828 75.5546C17.7396 75.5748 18.1787 75.2972 18.2191 73.9243C18.9712 48.8793 29.283 28.6948 49.5633 13.9464C66.8455 1.3784 86.3334 -2.61912 107.129 1.64591C133.829 7.12232 152.161 23.0973 162.387 48.2786C165.663 56.3342 167.142 64.8492 167.182 73.5609C167.187 75.0852 167.531 75.6203 169.141 75.5698C172.856 75.4537 176.575 75.5344 180.295 75.5799C181.103 75.59 181.951 75.6505 182.713 75.8979C184.389 76.448 185.343 77.6846 185.227 79.4613C185.111 81.2228 184.066 82.3635 182.299 82.6916C181.562 82.8279 180.795 82.838 180.043 82.8329C176.136 82.8128 172.23 82.8229 168.323 82.7017C167.081 82.6613 166.733 83.1005 166.572 84.2563C164.149 101.72 156.684 116.671 143.833 128.764C131.043 140.797 115.84 147.848 98.2604 148.787C68.1276 150.402 44.9853 138.087 28.7126 112.729C28.435 112.289 28.3139 111.679 27.481 111.396ZM128.201 75.2417C128.201 75.3326 128.201 75.4184 128.201 75.5092C138.155 75.5092 148.108 75.4638 158.057 75.5546C159.783 75.5698 160.156 75.0549 160.096 73.4347C159.869 67.3022 158.95 61.3109 157.259 55.4005C149.723 29.0532 125.123 9.18669 97.8213 7.4403C96.2768 7.33935 95.7872 7.62705 95.7973 9.28259C95.9537 30.633 96.0496 51.9884 96.09 73.3388C96.0951 74.9944 96.6654 75.277 98.1544 75.272C108.168 75.2114 118.187 75.2417 128.201 75.2417ZM88.8319 41.2779C88.7612 41.2779 88.6956 41.2779 88.6249 41.2779C88.6249 30.5724 88.5947 19.8669 88.6552 9.16146C88.6653 7.68762 88.2464 7.37469 86.823 7.51096C76.4355 8.4952 66.6335 11.5438 57.8561 17.0656C37.1619 30.0778 26.3706 48.9852 25.3712 73.4549C25.3006 75.1256 25.7548 75.5546 27.4306 75.5395C47.2668 75.3881 67.1029 75.3023 86.9391 75.272C88.6048 75.2669 88.8672 74.6814 88.8571 73.1975C88.8066 62.5627 88.8319 51.9228 88.8319 41.2779Z" fill="white"/>
<path d="M128.201 75.2417C118.187 75.2417 108.173 75.2114 98.1544 75.272C96.6654 75.2821 96.0951 74.9994 96.09 73.3388C96.0496 51.9884 95.9487 30.633 95.7973 9.28258C95.7872 7.62704 96.2768 7.33934 97.8213 7.44028C125.117 9.18668 149.723 29.0531 157.259 55.3954C158.95 61.3059 159.869 67.2971 160.096 73.4297C160.156 75.0549 159.783 75.5647 158.057 75.5496C148.103 75.4587 138.15 75.5041 128.201 75.5041C128.201 75.4183 128.201 75.3325 128.201 75.2417Z" fill="#FDE200"/>
<path d="M88.8319 41.2779C88.8319 51.9178 88.8067 62.5627 88.8622 73.2026C88.8723 74.6865 88.6098 75.272 86.9442 75.277C67.108 75.3073 47.2718 75.3982 27.4356 75.5445C25.7599 75.5597 25.3057 75.1307 25.3763 73.46C26.3757 48.9852 37.167 30.0778 57.8612 17.0707C66.6386 11.5489 76.4406 8.50025 86.8281 7.51601C88.2464 7.37973 88.6654 7.69267 88.6603 9.1665C88.5997 19.872 88.63 30.5775 88.63 41.283C88.6956 41.2779 88.7613 41.2779 88.8319 41.2779Z" fill="#FDE200"/>
</svg>
