<svg width="16" height="16" viewBox="0 0 16 16" fill="none" xmlns="http://www.w3.org/2000/svg">
<path d="M3.31806 9.51503L2.69824 12.6565C2.63949 12.9541 2.83321 13.2431 3.13087 13.3018C3.20109 13.3157 3.27334 13.3157 3.34356 13.3018L6.48499 12.682C6.5919 12.6609 6.69009 12.6084 6.76712 12.5313L15.6213 3.67728C16.1262 3.1725 16.1263 2.354 15.6215 1.84909C15.6214 1.849 15.6214 1.84894 15.6213 1.84884L14.1512 0.378719C13.6463 -0.126187 12.8278 -0.12625 12.3229 0.378594L12.3227 0.378719L3.46856 9.23291C3.39153 9.30997 3.33915 9.40816 3.31806 9.51503ZM13.0997 1.15566C13.1755 1.07994 13.2984 1.07994 13.3743 1.15566L14.8444 2.62578C14.9201 2.70163 14.9201 2.82447 14.8444 2.90034L13.7283 4.01638L11.9837 2.27169L13.0997 1.15566ZM4.36362 9.89169L11.2067 3.04862L12.9514 4.79334L6.10834 11.6364L3.93484 12.0652L4.36362 9.89169Z" fill="black"/>
<path d="M15.3667 6.1068C15.0633 6.1068 14.8174 6.35277 14.8174 6.65617V13.0402C14.8162 14.0676 13.9836 14.9002 12.9562 14.9014H2.95991C1.9325 14.9002 1.09991 14.0676 1.09875 13.0402V3.04389C1.09991 2.01648 1.9325 1.18389 2.95991 1.18273H9.34394C9.64734 1.18273 9.89331 0.936766 9.89331 0.633359C9.89331 0.329953 9.64734 0.0839844 9.34394 0.0839844H2.95991C1.32594 0.0858281 0.00184375 1.40995 0 3.04389V13.0402C0.00184375 14.6741 1.32597 15.9983 2.95991 16.0001H12.9562C14.5902 15.9983 15.9143 14.6741 15.9161 13.0402V6.65617C15.9161 6.35277 15.6702 6.1068 15.3667 6.1068Z" fill="black"/>
</svg>
