<svg width="24" height="23" viewBox="0 0 24 23" fill="none" xmlns="http://www.w3.org/2000/svg">
<path d="M23.1949 9.58691C19.4967 6.47346 12.7811 0.673092 12.7145 0.614182L12 0L11.2887 0.614182C11.2211 0.672 4.50218 6.47018 0.750545 9.612C0.272727 10.0418 0 10.6429 0 11.2582C0 12.4625 0.977455 13.44 2.18182 13.44H3.27273V19.9855C3.27273 21.1898 4.25018 22.1673 5.45455 22.1673H8.72727H18.5455C19.7498 22.1673 20.7273 21.1898 20.7273 19.9855V13.44H21.8182C23.0225 13.44 24 12.4625 24 11.2582C24 10.6058 23.7 9.99164 23.1949 9.58691ZM14.1818 19.9855H9.81818V14.5309H14.1818V19.9855ZM18.5455 11.2582L18.5476 19.9855C18.5455 19.9855 15.2727 19.9855 15.2727 19.9855V13.44H8.72727V19.9855H5.45455V11.2582H2.18073C5.19709 8.736 10.1607 4.46509 12 2.88C13.8393 4.46509 18.8007 8.73491 21.8182 11.2593C21.8182 11.2593 18.5455 11.2593 18.5455 11.2582Z" fill="#404040"/>
</svg>
