<svg width="24" height="24" viewBox="0 0 24 24" fill="none" xmlns="http://www.w3.org/2000/svg">
<path d="M11.248 22.5003H2.24959C1.00718 22.5003 0 21.4931 0 20.2507V0.754212C0.0015112 0.45149 0.184898 0.179369 0.464916 0.0643371C0.744163 -0.0530891 1.06664 0.00903884 1.28227 0.221809L2.46705 1.41409C2.60785 1.55605 2.79951 1.6359 2.99946 1.6359C3.1994 1.6359 3.39106 1.55605 3.53186 1.41409L4.71665 0.221809C4.85744 0.0798497 5.04911 0 5.24905 0C5.44899 0 5.64065 0.0798498 5.78145 0.221809L6.96624 1.41409C7.10704 1.55605 7.2987 1.6359 7.49864 1.6359C7.69858 1.6359 7.89024 1.55605 8.03104 1.41409L9.21583 0.221809C9.35663 0.0798497 9.54829 0 9.74823 0C9.94818 0 10.1398 0.0798498 10.2806 0.221809L11.4654 1.41409C11.6062 1.55605 11.7979 1.6359 11.9978 1.6359C12.1978 1.6359 12.3894 1.55605 12.5302 1.41409L13.715 0.221809C13.8558 0.0798495 14.0475 -1.78814e-07 14.2474 0C14.4474 0 14.639 0.0798498 14.7798 0.221809L15.9646 1.41409C16.1054 1.55605 16.2971 1.6359 16.497 1.6359C16.697 1.6359 16.8886 1.55605 17.0294 1.41409L18.2142 0.221809C18.4298 0.00903875 18.7523 -0.0530886 19.0315 0.0643376C19.3116 0.17937 19.495 0.451491 19.4965 0.754212L19.4965 11.2523C19.4965 11.6664 19.1607 12.0022 18.7466 12.0022C18.3325 12.0022 17.9967 11.6664 17.9967 11.2523V2.56138C17.0969 3.32991 15.7609 3.291 14.9073 2.4714L14.2474 1.81152L13.5875 2.4714C12.6995 3.32462 11.2962 3.32462 10.4081 2.4714L9.74823 1.81152L9.08835 2.4714C8.20027 3.32462 6.79701 3.32462 5.90893 2.4714L5.24905 1.81152L4.58917 2.4714C3.73555 3.291 2.3996 3.32991 1.49973 2.56138L1.49973 20.2507C1.49973 20.6648 1.83545 21.0005 2.24959 21.0005H11.248C11.6621 21.0005 11.9978 21.3363 11.9978 21.7504C11.9978 22.1645 11.6621 22.5003 11.248 22.5003Z" fill="#404040"/>
<path d="M11.2479 18.7509H4.49913C4.08499 18.7509 3.74927 18.4152 3.74927 18.0011C3.74927 17.5869 4.08499 17.2512 4.49913 17.2512H11.2479C11.662 17.2512 11.9978 17.5869 11.9978 18.0011C11.9978 18.4152 11.662 18.7509 11.2479 18.7509Z" fill="#404040"/>
<path d="M11.2479 15.7514H4.49913C4.08499 15.7514 3.74927 15.4157 3.74927 15.0016C3.74927 14.5874 4.08499 14.2517 4.49913 14.2517H11.2479C11.662 14.2517 11.9978 14.5874 11.9978 15.0016C11.9978 15.4157 11.662 15.7514 11.2479 15.7514Z" fill="#404040"/>
<path d="M12.7476 12.7519H4.49913C4.08499 12.7519 3.74927 12.4162 3.74927 12.0021C3.74927 11.5879 4.08499 11.2522 4.49913 11.2522H12.7476C13.1618 11.2522 13.4975 11.5879 13.4975 12.0021C13.4975 12.4162 13.1618 12.7519 12.7476 12.7519Z" fill="#404040"/>
<path d="M14.9972 9.75266H4.49913C4.08499 9.75266 3.74927 9.41693 3.74927 9.00279C3.74927 8.58866 4.08499 8.25293 4.49913 8.25293H14.9972C15.4114 8.25293 15.7471 8.58866 15.7471 9.00279C15.7471 9.41693 15.4114 9.75266 14.9972 9.75266Z" fill="#404040"/>
<path d="M14.9972 6.75315H4.49913C4.08499 6.75315 3.74927 6.41742 3.74927 6.00328C3.74927 5.58914 4.08499 5.25342 4.49913 5.25342H14.9972C15.4114 5.25342 15.7471 5.58914 15.7471 6.00328C15.7471 6.41742 15.4114 6.75315 14.9972 6.75315Z" fill="#404040"/>
<path d="M17.2468 14.2517H20.2463V16.5013C20.2463 16.9154 19.9106 17.2512 19.4964 17.2512H17.9967C17.5826 17.2512 17.2468 16.9154 17.2468 16.5013V14.2517Z" fill="#404040"/>
<path d="M21.7461 24.0001H15.7472C14.5047 24.0001 13.4976 22.9929 13.4976 21.7505V15.7515C13.4976 14.5091 14.5047 13.502 15.7472 13.502H21.7461C22.9885 13.502 23.9957 14.5091 23.9957 15.7515V21.7505C23.9957 22.9929 22.9885 24.0001 21.7461 24.0001ZM15.7472 15.0017C15.333 15.0017 14.9973 15.3374 14.9973 15.7515V21.7505C14.9973 22.1646 15.333 22.5003 15.7472 22.5003H21.7461C22.1602 22.5003 22.4959 22.1646 22.4959 21.7505V15.7515C22.4959 15.3374 22.1602 15.0017 21.7461 15.0017H15.7472Z" fill="#404040"/>
<path d="M17.9968 21.0005H17.2469C16.8328 21.0005 16.4971 20.6647 16.4971 20.2506C16.4971 19.8365 16.8328 19.5007 17.2469 19.5007H17.9968C18.4109 19.5007 18.7467 19.8365 18.7467 20.2506C18.7467 20.6647 18.4109 21.0005 17.9968 21.0005Z" fill="#404040"/>
</svg>
