<svg width="24" height="24" viewBox="0 0 24 24" fill="none" xmlns="http://www.w3.org/2000/svg">
<path d="M12 1.95117C6.48 1.95117 2 6.32242 2 11.7084C2 17.0944 6.48 21.4657 12 21.4657C17.52 21.4657 22 17.0944 22 11.7084C22 6.32242 17.52 1.95117 12 1.95117ZM12 4.87835C13.66 4.87835 15 6.18582 15 7.80553C15 9.42523 13.66 10.7327 12 10.7327C10.34 10.7327 9 9.42523 9 7.80553C9 6.18582 10.34 4.87835 12 4.87835ZM12 18.7337C9.5 18.7337 7.29 17.4847 6 15.5918C6.03 13.6501 10 12.5866 12 12.5866C13.99 12.5866 17.97 13.6501 18 15.5918C16.71 17.4847 14.5 18.7337 12 18.7337Z" fill="#FFE403"/>
</svg>
