<svg width="23" height="23" viewBox="0 0 23 23" fill="none" xmlns="http://www.w3.org/2000/svg">
<path d="M12.7803 22.2228H9.44302C9.0186 22.2228 8.6628 21.9026 8.61821 21.4807L8.37112 19.1541C8.02617 19.0367 7.68918 18.8971 7.36226 18.7362L5.54408 20.2067C5.21457 20.4721 4.73809 20.4468 4.43847 20.1481L2.07854 17.7882C1.77981 17.4885 1.75455 17.0121 2.01995 16.6826L3.49097 14.8622C3.32977 14.5353 3.18998 14.1983 3.07249 13.8533L0.741867 13.6045C0.320217 13.5599 0.00018692 13.2043 3.8147e-06 12.7803L0 9.44246C0.00018692 9.01845 0.320217 8.66289 0.741867 8.61823L3.06862 8.37113C3.18611 8.02612 3.3259 7.68912 3.4871 7.36225L2.01608 5.54187C1.75069 5.21236 1.77594 4.73588 2.07468 4.43626L4.4346 2.07634C4.73421 1.7776 5.21069 1.75234 5.54021 2.01774L7.3606 3.4882C7.68752 3.32728 8.02451 3.18768 8.36947 3.07028L8.61657 0.743524C8.66053 0.320375 9.01759 -0.000856591 9.44302 1.71594e-06H12.7803C13.2047 1.71594e-06 13.5605 0.320188 13.6051 0.742056L13.8516 3.06862C14.1968 3.18602 14.5339 3.32562 14.8611 3.48654L16.6809 2.01608C17.0104 1.75069 17.4869 1.77594 17.7865 2.07468L20.1464 4.4346C20.4452 4.73422 20.4704 5.2107 20.205 5.54021L18.734 7.3606C18.895 7.68757 19.0348 8.02455 19.1525 8.36947L21.4792 8.61657C21.9007 8.66149 22.2204 9.01698 22.2205 9.44081V12.7786C22.2214 13.2023 21.9026 13.5585 21.4814 13.6045L19.1547 13.8516C19.037 14.1965 18.8972 14.5335 18.7362 14.8605L20.2072 16.6809C20.4726 17.0104 20.4474 17.4869 20.1486 17.7865L17.7887 20.1481C17.4891 20.4468 17.0126 20.4721 16.6831 20.2067L14.8633 18.7362C14.5362 18.8971 14.199 19.0367 13.8538 19.1541L13.6073 21.4809C13.5625 21.9036 13.2054 22.224 12.7803 22.2228ZM10.1876 20.5643H12.0335L12.2596 18.4327C12.2959 18.0912 12.539 17.8074 12.871 17.7191C13.455 17.5633 14.0157 17.3304 14.5382 17.0264C14.8361 16.8528 15.2102 16.8817 15.478 17.0988L17.1452 18.446L18.4504 17.1408L17.101 15.4785C16.8839 15.2108 16.855 14.8366 17.0286 14.5388C17.3319 14.0166 17.5641 13.4563 17.719 12.8726C17.8074 12.5405 18.0915 12.2973 18.4333 12.2612L20.5643 12.0346V10.1887L18.4333 9.9621C18.0915 9.926 17.8074 9.68281 17.719 9.35069C17.5642 8.76685 17.332 8.20632 17.0286 7.68399C16.855 7.38613 16.8839 7.01197 17.101 6.74422L18.4482 5.07696L17.143 3.77179L15.4758 5.11897C15.208 5.33611 14.8339 5.36495 14.536 5.19139C14.0137 4.88828 13.4534 4.65608 12.8699 4.50094C12.5379 4.41264 12.2948 4.12883 12.2584 3.78727L12.0346 1.65842H10.1876L9.96154 3.79003C9.92515 4.13175 9.68175 4.4156 9.34959 4.5037C8.76643 4.65956 8.20666 4.8925 7.68509 5.19637C7.38724 5.36992 7.01307 5.34109 6.74532 5.12395L5.07973 3.77455L3.77511 5.07973L5.12284 6.74698C5.33981 7.01485 5.36842 7.38901 5.19471 7.68675C4.89184 8.20913 4.65966 8.76941 4.50426 9.3529C4.41596 9.68485 4.13215 9.92799 3.79058 9.96431L1.65897 10.191V12.0362L3.79058 12.2629C4.13215 12.2992 4.41596 12.5423 4.50426 12.8743C4.65962 13.4572 4.89161 14.0169 5.19415 14.5388C5.36787 14.8365 5.33925 15.2107 5.12229 15.4785L3.77511 17.143L5.08028 18.4482L6.74809 17.101C7.01584 16.8839 7.39001 16.855 7.68786 17.0286C8.20988 17.3318 8.77003 17.564 9.35346 17.719C9.68562 17.8072 9.92902 18.091 9.96542 18.4327L10.1876 20.5643Z" fill="#404040"/>
<path d="M11.1114 16.1619C8.32275 16.1619 6.06163 13.9008 6.06152 11.1116C6.06152 8.32225 8.32257 6.06114 11.1118 6.06104C13.9012 6.06104 16.1623 8.32207 16.1624 11.1113C16.1594 13.8996 13.8997 16.1591 11.1114 16.1619ZM11.1114 7.71945C9.23866 7.71945 7.72005 9.23799 7.71994 11.1113C7.71994 12.9847 9.23848 14.5034 11.1118 14.5035C12.9852 14.5035 14.5039 12.9849 14.504 11.1116C14.5019 9.23888 12.9842 7.72128 11.1114 7.71945Z" fill="#404040"/>
</svg>
